<svg xmlns="http://www.w3.org/2000/svg" viewBox="0 0 178 158"><g fill="none" fill-rule="evenodd"><path stroke="#4A4A4A" stroke-linejoin="round" stroke-width="3" d="M109.004 116L109 143"/><path stroke="#4A4A4A" stroke-linecap="round" stroke-linejoin="round" stroke-width="3" d="M117 108c0 4.418191-3.508557 8-7.837585 8-1.529544 0-2.956409-.446861-4.162415-1.220959M121.764786 151.386476L125.821982 153s-3.09874-4.060128 4.178018-5.01569c-7.1072-2.184431-.709705-4.98431-.709705-4.98431H106l.665031.215609 5.805567 2.963863"/><path stroke="#4A4A4A" stroke-linejoin="round" stroke-width="3" d="M99.004 117L99 145"/><path stroke="#4A4A4A" stroke-linecap="round" stroke-linejoin="round" stroke-width="3" d="M122 150.984818C114.8928 148.800607 121.290295 146 121.290295 146H98l.6650309.216599L117.821982 156s-3.09874-4.059717 4.178018-5.015182zM107 109.183321C107 113.500268 103.417969 117 99.0004943 117 94.5820305 117 91 113.500268 91 109.183321c0-.402812.0316381-.796931.0909596-1.183321"/><path stroke="#4A4A4A" stroke-linejoin="round" stroke-width="3" d="M116 108c13.582945-3.325629 21.471448-9.7209163 25.353012-16.9543863 4.367896-8.1429237 4.189945-21.4233578 2.674325-29.5672853-1.515619-8.1459351-6.858204-21.7174747-6.152465-30.2779842C138.351094 25.4163789 141.085074 24 141.085074 24M19.7625686 79c-8.08943361.5930286-15.47773643.94382-17.23704611.7458088-3.16655797-.3538069 7.86303717 11.7017601 36.18652691 12.7651909 0 0 5.2769317 1.0634309 9.3231445 2.4826789 4.0462128 1.419248 45.9145919 16.4882044 62.6270361 13.6517184 1.871012-.316617 3.648274-.687511 5.33777-1.107657M144 11.81680263S142.223801 2 130.502299 2c-11.72251 0-13.942758 10.9558181-13.942758 10.9558181s-2.486074 12.184285-2.397466 18.40812c.088609 6.2228411-2.220248 12.1832912-4.43949 13.9365401C108.992572 45.8769433 100.2022 50.5542616 91 55"/><path stroke="#4A4A4A" stroke-linecap="round" stroke-linejoin="round" stroke-width="3" d="M14 77.2304337s74.6221212-21.3209178 74.6251324-21.3219311c.5380052-.2269691 33.0321126-4.7349419 37.5499506 8.6694123 2.869696 8.5113444-1.66621 22.3108682-14.889494 25.9433884C84.8340027 97.7883703 34.3588788 87.7804478 14 77.2304337zM141.567797 23.7115961C139.729012 23.271288 135 19.3963771 135 19.3963771S142.267766 15.3457424 144.194916 12c0 0 3.239716 1.4966481 6.741548 1.672372 3.502825.1757238 16.655298-1.1851377 20.518533 1.4976465C176.97135 19 175.919907 26 175.919907 26s-.963078-1.7612323-4.02805-3.1700185c-3.063979-1.4077878-9.309095-.9674797-14.300224 0-4.991128.9694765-16.023836.8816146-16.023836.8816146z"/><path fill="#000" d="M134 11.49956102C134 12.3292362 133.32748 13 132.499561 13 131.670764 13 131 12.3292362 131 11.49956102 131 10.67164179 131.670764 10 132.499561 10 133.32748 10 134 10.67164179 134 11.49956102"/><path stroke="#4A4A4A" stroke-width="3" d="M134 11.49956102C134 12.3292362 133.32748 13 132.499561 13 131.670764 13 131 12.3292362 131 11.49956102 131 10.67164179 131.670764 10 132.499561 10 133.32748 10 134 10.67164179 134 11.49956102z"/></g></svg>