<svg xmlns="http://www.w3.org/2000/svg" viewBox="0 0 287 111"><g fill="none" fill-rule="evenodd"><g fill="#4A4A4A"><path d="M174.056162 41.3609507c-.096385 5.2653995-.228914 12.4773866-3.445761 16.3224981-.004819.0072096-.007229.0168223-.012048.0240319l-.004819-.0024032-1.387943 1.7230906c-2.852993-1.5596733-5.250568-3.3284246-7.419228-4.950581-5.062618-3.7874348-9.438493-7.0581827-18.691444-7.0581827-6.942123 0-11.137276 1.8408471-14.937252 4.3593951-.06024-.0769022-.106023-.1634172-.18554-.2307067l-3.510821-2.9222847c-1.354208-1.1222919-1.53493-3.1385722-.404816-4.4867644l12.428834-14.8541461c3.356604-4.0157383 10.267402-5.7051842 15.313152-6.938023 1.508424-.3676888 2.831307-.6945233 3.83612-1.0237609 8.219223-2.6963844 14.693879-8.5241315 17.067358-10.8672463l1.269871 1.0574057 8.746931 7.2768734c-2.098782 3.0953147-7.790311 11.9318615-8.440909 17.6346424-.156625 1.3602081-.185541 3.0160093-.221685 4.9361618m-53.671938 16.0052764c-.06265-.0793054-.108433-.1682237-.19036-.2355131l-1.679507-1.3986593c-1.351798-1.1222919-1.537339-3.136169-.407226-4.4867644.544575-.6488626 1.313244-1.0477929 2.16866-1.1246951.865055-.0817086 1.684327.1802396 2.330106.7209584l3.159015 2.6290949c-.453009.3340441-.903608.665685-1.361437 1.0093418-1.248184.9348427-2.583115 1.9201525-4.019251 2.8862368m-8.701147 4.2921056c-.477106-1.1174855-.293974-2.3815659.477105-3.3043926 1.125294-1.345789 3.146967-1.5356414 4.501175-.4061399l1.195173.9949226c-1.828903 1.062212-3.848167 2.0403122-6.149357 2.8309633-.012048-.0384511-.007229-.0769023-.024096-.1153534m61.18996-56.46305835l1.556616-1.86007266c.44819-.53350921 1.250595-.60560505 1.783121-.16101404l12.599918 10.48754145c.25542.2114811.414455.5142837.44578.8507309.028915.3388505-.074698.6656849-.289155.92523l-1.556616 1.8600726c-.44819.5359124-1.250594.6032019-1.780711.1610141l-.045783-.0384511-.00241-.0024032-12.060162-10.03574092-.493972-.41094628c-.25542-.21148113-.414456-.51428366-.443371-.85073091-.031325-.33885044.072289-.66568492.286745-.92522994M285.554226 40.241062c-12.472207 0-19.28903-5.0995791-24.78056-9.2042355-5.060208-3.789838-9.433673-7.0605859-18.689034-7.0605859-9.248132 0-13.621598 3.2683447-18.693854 7.062989-5.479482 4.0998501-12.298714 9.2018324-24.775741 9.2018324-9.655358 0-15.886643-3.0592668-20.768539-6.3444339 1.655411-4.9073235 5.636108-11.0715178 7.269832-13.4891316.431323.1441917.877103.2259003 1.322883.2259003 1.190354 0 2.373479-.5070741 3.19516-1.4875775l1.556616-1.864879c.708429-.8459246 1.045777-1.9201526.944572-3.0256221-.098794-1.1054695-.621682-2.1027953-1.469869-2.8093346L178.063365.95844218c-1.756615-1.46114235-4.385514-1.22562928-5.855384.52870282l-1.556616 1.86487905c-.708429.84592452-1.045776 1.92015253-.944572 3.02562207.072288.79305424.368672 1.52362541.838549 2.13884324-2.277094 2.22055184-8.342114 7.61332064-15.814355 10.06457924-.946981.3124153-2.197576.6152178-3.619253.963681-5.436109 1.3313699-12.879434 3.148185-16.848082 7.8896881l-8.426451 10.0717888c-3.787927 1.605334-8.342114 2.7348355-14.163763 2.7348355-12.4794361 0-19.2986685-5.1043855-24.7805603-9.2066387-5.0626174-3.7874348-9.4384924-7.0581827-18.6914438-7.0581827-9.255361 0-13.6288263 3.2707479-18.7010822 7.0701986-5.4794822 4.0950437-12.296305 9.1946228-24.770922 9.1946228-.7975852 0-1.4433641.6464593-1.4433641 1.4419168 0 .7954574.6457789 1.4395136 1.4433641 1.4395136 13.4360565 0 20.6817921-5.4168008 26.5154888-9.7785991 5.0312924-3.7634028 8.6650035-6.4862223 16.9565154-6.4862223 8.2915119 0 11.9276327 2.7204163 16.9565154 6.4838191 5.8216486 4.3593951 13.0697939 9.7810023 26.5154887 9.7810023 4.043347 0 7.510794-.5022677 10.558967-1.3073379l-.872283 1.0429865c-.154216.1850459-.238553.3989303-.284336.6200242-.592767 1.1847749-.754212 2.506532-.527707 3.7706124-.175903.0024032-.354215-.0192256-.532527-.0024032-1.624086.1465949-3.089136.9084076-4.130093 2.1508592-1.195173 1.4299008-1.590351 3.2515224-1.286739 4.9553874-1.737338.0072096-3.460218.7233616-4.657801 2.1532624-1.416858 1.6942522-1.766253 3.9868999-.980716 6.0464377-2.732512.6873137-5.785504 1.1295015-9.3372883 1.1295015-12.4818459 0-19.2986687-5.1019822-24.7853797-9.2090419-5.0626174-3.7850316-9.4336731-7.0533763-18.6842149-7.0533763-9.2529514 0-13.6240071 3.2683447-18.6938534 7.0605859-5.4770725 4.0998501-12.2938953 9.2018323-24.7781509 9.2018323-.7975851 0-1.443364.6464594-1.443364 1.4419168s.6457789 1.4395136 1.443364 1.4395136c13.4481047 0 20.6914307-5.4216071 26.5178985-9.7810022 5.0312924-3.7609997 8.6674131-6.481416 16.9541058-6.481416 8.2866927 0 11.9204038 2.7180131 16.9565154 6.4838192 5.8216486 4.3569919 13.0649746 9.778599 26.5130792 9.778599 13.4505143 0 20.6938403-5.4216071 26.5154893-9.778599 5.031292-3.7634029 8.667413-6.4838192 16.956515-6.4838192 8.291512 0 11.927633 2.7204163 16.956515 6.4838192 5.821649 4.3569919 13.064975 9.778599 26.515489 9.778599 13.448105 0 20.691431-5.4216071 26.51308-9.778599 5.031292-3.7634029 8.667413-6.4838192 16.956515-6.4838192s11.925223 2.7204163 16.956515 6.4838192c5.821649 4.3569919 13.062565 9.778599 26.51067 9.778599.799995 0 1.445774-.6440562 1.445774-1.4395136s-.645779-1.4419168-1.445774-1.4419168c-12.481846 0-19.298669-5.1019822-24.778151-9.2042355-5.062617-3.7874348-9.438492-7.0581827-18.689034-7.0581827s-13.626417 3.2707479-18.691444 7.0605859c-5.477072 4.0998501-12.293895 9.2018323-24.778151 9.2018323-6.086707 0-10.814387-1.2232261-14.708337-2.9439134l.971078-1.2040005h.00241c.002409-.0024032.002409-.0024032.002409-.0048064l.014458-.0168224c3.848167-4.6285529 3.992745-12.4100972 4.096359-18.1008621.036144-1.7759609.065059-3.3091991.19036-4.5107964 5.081894 3.2851671 11.592695 6.221871 21.479377 6.221871 13.443285 0 20.686611-5.419204 26.520308-9.7834055 5.028883-3.7609996 8.662594-6.4814159 16.949287-6.4814159 8.291512 0 11.925223 2.7228195 16.966154 6.4958351 5.821648 4.3521855 13.067384 9.7689863 26.50344 9.7689863.799995 0 1.445774-.6440562 1.445774-1.4395136 0-.7954575-.645779-1.4419168-1.445774-1.4419168M258.775301 86.0469194c-12.317878 0-19.043853-5.2981814-24.445556-9.5556932-4.995148-3.935578-9.307951-7.3345997-18.444721-7.3345997-9.134393 0-13.447195 3.3990217-18.442343 7.3345997-5.406458 4.2575118-12.132433 9.5556932-24.447934 9.5556932-12.317878 0-19.043854-5.2981814-24.445556-9.5556932-4.995148-3.935578-9.307951-7.3345997-18.444721-7.3345997-9.13677 0-13.449573 3.3990217-18.444721 7.3345997-5.406458 4.2575118-12.1324329 9.5556932-24.4479338 9.5556932-12.3155009 0-19.0414761-5.2981814-24.4479335-9.5556932-4.9951481-3.935578-9.3079509-7.3345997-18.4423436-7.3345997-9.1343928 0-13.4495731 3.3990217-18.4470987 7.3345997-5.4017023 4.2575118-12.1300551 9.5556932-24.44793351 9.5556932C.63955014 86.0469194 0 86.7182387 0 87.5442858c0 .8260472.63955014 1.4948708 1.42650589 1.4948708 13.27125981 0 20.41805431-5.6300976 26.16211811-10.1546397 4.9642405-3.9106219 8.5495253-6.7331576 16.7329141-6.7331576 8.1810113 0 11.7662961 2.8225357 16.7305366 6.7356532 5.7440637 4.5220465 12.8956132 10.1521441 26.1597405 10.1521441 13.2641278 0 20.4156768-5.6300976 26.1621178-10.1546397 4.961863-3.9106219 8.544771-6.7331576 16.730537-6.7331576 8.183389 0 11.768673 2.8225357 16.730536 6.7331576 5.744064 4.5245421 12.890859 10.1546397 26.159741 10.1546397 13.264127 0 20.415677-5.6300976 26.162118-10.1546397 4.961863-3.9106219 8.547148-6.7331576 16.728159-6.7331576 8.183389 0 11.768674 2.8225357 16.730537 6.7331576 5.744064 4.5245421 12.890858 10.1546397 26.15974 10.1546397.786956 0 1.426506-.6688236 1.426506-1.4948708 0-.8260471-.63955-1.4973664-1.426506-1.4973664"/></g><path fill="#F58C1E" d="M191.60974472 111c-2.00666373 0-3.87279382-1.0952342-4.87052674-2.8573544-.99661313-1.7626867-.98485534-3.9463559.03135412-5.6977107l29.3905691-50.64197397C217.1790303 50.04820653 218.988611 49 221.0003138 49c2.0111429 0 3.8207236 1.04820653 4.8386128 2.80352753l29.3900092 50.64140737c1.0167693 1.7507882 1.0285271 3.9344574.031914 5.6971441C254.2642366 109.9047658 252.3981066 111 250.3908829 111h-58.78113818z"/><path fill="#F58C1E" d="M219.9973659 53.85766776l-29.75488247 50.52396544C189.56058063 105.5404527 190.39779628 107 191.74516366 107h59.50919814c1.3473674 0 2.1857168-1.4595473 1.5026803-2.6183668l-29.7543157-50.52396544c-.6734003-1.14355701-2.3319602-1.14355701-3.0053605 0"/><path fill="#030404" d="M221 51c-1.2264272 0-2.3294793.62935348-2.9508616 1.6831416l-29.57171143 50.1798519c-.62983261 1.0672622-.63659289 2.3467417-.01971748 3.4213025C189.07514826 107.3588567 190.185524 108 191.42772516 108h59.14398634c1.2427645 0 2.3531402-.6411433 2.970579-1.715704.6168754-1.0745608.6101151-2.3540403-.0197175-3.4213025l-29.5717114-50.1798519C223.3300426 51.62935348 222.2264272 51 221 51m0 2.24568592c.4253342 0 .7920793.20941021 1.0078448.57489559l29.5717115 50.17929049c.2213991.3755909.2242159.7910428.0067603 1.1683181-.2174556.3778366-.5768771.586124-1.0146051.586124h-59.14398634c-.43660131 0-.7971495-.2082874-1.01404177-.586124-.21689226-.3772753-.21463884-.7927272.00676028-1.1683181l29.57171153-50.17929049c.2152021-.36548538.583074-.57489559 1.0078448-.57489559"/><path fill="#0B0F0C" d="M231.6308301 90.7564628l.7150096.0166804c.9359115.0218571 1.8217444-.4354159 2.3670436-1.2216953.1869597-.268612.2871167-.5907162.2871167-.9248993v-.0149549c0-.4935097-.2247968-.9622864-.6131834-1.2498794-.4061922-.3002472-.8262951-.522269-.8262951-.522269.0717791-.3221043-.0406193-.7977832-.1680412-1.1848835C233.2639455 85.2617097 232.905606 85 232.5044216 85h-.1374376c-.0929235 0-.1902983.0074774-.2893425.0230074-.3399773.0534924-.6554718.2128189-.9264521.4313896l-.1457841.117338c-.2336997.2087926-.3232845.5705847-.3995151.8380462-.3444288 1.2153683-2.7342859 2.8005813-2.7342859 2.8005813-2.1850917 1.6105212-4.5894159 3.1439674-6.8713261 4.4968052-2.2824666-1.3528378-4.6862344-2.886284-6.8713261-4.4968052 0 0-2.3904135-1.585213-2.7342859-2.8005813-.0762306-.2674615-.1663718-.6292536-.3995151-.8380462l-.145784-.117338c-.2709803-.2185707-.5864749-.3778972-.9264522-.4313896-.0990442-.01553-.1969754-.0230074-.2898989-.0230074h-.1374376c-.400628 0-.7589674.2617097-.8875022.6545618-.127422.3871003-.2403768.8627792-.1680412 1.1848835 0 0-.420103.2220218-.8268516.522269-.3883866.287593-.6131834.7563697-.6131834 1.2498794v.0149549c0 .3341831.1007134.6562873.2871167.9248993.5458556.7862794 1.4316886 1.2435524 2.3676 1.2216953l.7150097-.0166804c.6048369-.0138044 1.2035531.126541 1.7427316.4112581 1.2736631.6712422 3.8721806 2.0677942 6.7628227 3.7691947-2.86449 1.6197242-5.3261263 2.8632766-6.5931122 3.4867784-.5937084.2916193-1.2441724.4394422-1.9013136.4319648l-1.9230142-.0212819c-.2409332-.002876-.6448998.0672968-.7600803.2858675 0 0-.8068202 1.2567817-.6849626 1.7065772.123527.4538219 1.5802548.9433053 1.5802548.9433053v1.0928537c0 .3468372.1602512.6833211.4479243.8616288.4351265.2686119 1.0076907.2979464 1.4600664.2640104.357783-.0276089.6827368-.2139692.9125415-.4986864 1.7399495-2.1557976 5.7022714-4.8913828 9.5866934-7.2766797 3.884422 2.3852969 7.8461875 5.1208821 9.5866934 7.2766797.2298047.2847172.5542021.4710775.9125415.4986864.4523758.033936 1.0249399.0046015 1.4600664-.2640104.2871167-.1783077.4473679-.5147916.4473679-.8616288v-1.0928537s1.4572842-.4894834 1.5802548-.9433053c.1224141-.4497955-.6844062-1.7065772-.6844062-1.7065772-.1151805-.2185707-.5197035-.2887435-.7600802-.2858675l-1.9230143.0212819c-.6571411.0074774-1.3076052-.1403455-1.90187-.4319648-1.2669859-.6235018-3.7280658-1.8670542-6.5931122-3.4867784 2.8906421-1.7014005 5.489716-3.0979525 6.7628227-3.7691947.5397349-.2847171 1.1378947-.4250625 1.7432881-.4112581"/><path fill="#0B0F0C" d="M214.8135031 80.1539169c.0533579-.1694783.1381689-.3269329.2269115-.4803795.194335-.3366665.4263014-.6761957.7739702-.8388033.2291581-.1070691.486961-.1265362.7391472-.1442857.1651286-.0114512.3302573-.023475.4953859-.0349262.1774852-.0125964.355532-.0251928.5335789-.0211848.3650803.0074433.7290372.0853117 1.0660344.2273071.1067158.0452324.207815.1042063.3021742.1723411.1381688.100771.2903792.2267346.3926017.3521257.1791702.2187187.166252.2232992.3521621.521604.0292064.0463775.0735777.1837924.0864959.2370406.0039317.0148867.0056167.0303458.0061783.045805.0106716.3343762-.0247131.775249-.1679369 1.0764166-.438658.9218248-.8705761 1.4502996-1.646793 1.7806678-.3813685.1620351-.7986833.1912358-1.2159982.1906632-.2100616-.0005726-.5521137-.0286281-.7599287-.0658446-.0629061-.0108787-.1572653-.0435148-.1859101-.0555386-.0336997-.0148866-.1044691-.0589738-.1044691-.0589738-.5403189-.3097561-.7823952-.7912807-.8688911-1.417091-.0668378-.4843875-.1758002-1.0099994-.0247132-1.4869436m6.1867069 1.3884629c.4313564.4763716 1.2384647 1.4165184 1.400785 2.0526348.1758002.6819214.2813927 1.836779-.8278898 1.836779-.2937492 0-.4880842-.2496371-.5728952-.5330553-.0853726.2834182-.2802693.5330553-.5734569.5330553-1.1092824 0-1.00369-1.1548576-.8273281-1.836779.1617587-.6361164.9688669-1.5762632 1.400785-2.0526348m1.2176832-1.3976239c.0129182-.0532482.0567279-.1906631.0859343-.2370406.1864718-.2983048.1735536-.3028853.3521621-.521604.1027841-.1253911.2549945-.2513547.3931634-.3521257.0943592-.0681348.1954583-.1271087.3016125-.1723411.3375588-.1419954.7009541-.2198638 1.0665961-.2273071.1774852-.004008.355532.0085884.5335789.0211848.1651286.0114512.3302572.023475.4959475.0349262.2510629.0177495.5088658.0372166.7385856.1442857.3471071.1626076.5796351.5021368.7739702.8388033.0881809.1534466.1735535.3109012.2269114.4803795.1510871.4769442.0421247 1.0025561-.0247131 1.4869436-.0864959.6258103-.3291339 1.1073349-.8694528 1.417091 0 0-.0702077.0440872-.1039074.0589738-.0292065.0120238-.123004.0446599-.1864718.0555386-.2072533.0372165-.5498671.065272-.7599287.0658446-.4167532.0005726-.8340681-.0286281-1.2159982-.1906632-.7756552-.3303682-1.208135-.858843-1.646793-1.7806678-.1432238-.3011676-.1786085-.7420404-.1673753-1.0764166.0005617-.0154592.0022467-.0309183.0061783-.045805m-8.3710104.9550335c-.5976083.0681349-.6245681.4420179-.6245681.4420179-.1954584 1.0981739.4981942 2.1402367 1.1014192 2.811852.4347264.4832423 1.0480613.756927 1.6906026.756927h1.0564862c.1218807 0 .237583.0566836.3145307.152874.0584129.0738605.0904276.166043.0904276.2605157v1.6598573L219.5494371 89h2.9009842l2.0736561-1.8161667V85.523976c0-.0944727.0320147-.1866552.0904276-.2605157.0769476-.0961904.19265-.152874.3145307-.152874h1.0564862c.6425413 0 1.2558762-.2736847 1.6900409-.756927.6037867-.6716153 1.2974392-1.7136781 1.1014192-2.811852 0 0-.0263981-.373883-.6245681-.4420179 0 0 .8290131-.5822956.8464246-3.8521972.0073016-1.2659346-.0207815-2.3749872-.0572895-2.9927817-.0539196-.9155266-.3695736-1.7938367-.9160708-2.5221356-1.0430063-1.3907531-3.2087749-3.4743063-6.9337173-3.7296689-.0606595-.004008-.1235656-.004008-.1842251 0-3.7243807.2553626-5.8901494 2.3389158-6.9331557 3.7296689-.5470588.7282989-.8621511 1.606609-.9160707 2.5221356-.036508.6177945-.0640295 1.7268471-.0572895 2.9927817.0174115 3.2699016.8458629 3.8521972.8458629 3.8521972"/></g></svg>