<svg xmlns="http://www.w3.org/2000/svg" viewBox="0 0 74 23"><g fill="#FFF" fill-rule="evenodd"><path d="M44.9205362 10.5634285c-.0248161 1.3447628-.0589382 3.1866767-.8871743 4.1687035-.0012408.0018413-.0018612.0042964-.003102.0061377l-.0012408-.0006138-.3573514.4400707c-.7345555-.3983346-1.351855-.8500669-1.9102165-1.2643594-1.3034637-.9672963-2.4301131-1.8026328-4.8124552-1.8026328-1.787377 0-2.8674962.4701453-3.8458695 1.1133728-.0155101-.0196406-.0272977-.0417362-.0477709-.0589216l-.9039252-.7463404c-.3486657-.286629-.3951958-.8015793-.1042275-1.1459024l3.2000315-3.79369207c.8642194-1.02560418 2.6435312-1.45708218 3.9426522-1.77194451.3883714-.09390631.7289719-.17737858.9876793-.26146462 2.1161899-.68864625 3.783209-2.17703054 4.3943046-2.77545308l.3269516.27005735 2.2520578 1.85848561c-.5403698.79053153-2.0057584 3.04735174-2.1732668 4.50382015-.0403261.34739196-.0477709.77027727-.0570769 1.26067687m-13.8188253 4.0876863c-.0161304-.0202543-.0279181-.0429637-.0490117-.0601492l-.4324199-.3572122c-.3480453-.286629-.3958163-.8009655-.1048479-1.1459024.1402108-.1657171.3381189-.2676023.5583614-.2872429.2227242-.020868.4336608.0460325.5999284.1841301l.8133465.6714607c-.1166355.0853136-.2326506.1700134-.3505269.2577821-.321368.2387552-.6650705.4903996-1.0348299.7371338m-2.2402702 1.0961873c-.1228395-.2854015-.075689-.6082428.1228395-.8439292.2897276-.3437094.8102445-.3921969 1.1589102-.1037266l.3077192.2540994c-.4708848.2712849-.9907813.521088-1.5832649.7230172-.003102-.0098202-.0018612-.0196405-.006204-.0294608M44.615919 1.32685318l.4007794-.47505544c.1153947-.1362562.3219884-.1546692.4590972-.04112237l3.24408 2.67847795c.0657625.05401147.106709.13134607.1147743.21727341.0074448.08654111-.0192325.17001338-.0744482.23630019l-.4007795.47505543c-.1153947.13686998-.3219884.15405545-.4584767.04112237l-.0117877-.00982026-.0006204-.00061377-3.10511-2.5630898-.1271823-.10495411c-.0657626-.05401147-.1067091-.13134607-.1141539-.21727341-.0080652-.08654111.018612-.17001338.0738278-.23630019m29.01184 8.95056002c-3.2111986 0-4.9663148-1.30241299-6.38021-2.35072654-1.3028434-.96791011-2.4288723-1.80324661-4.8118348-1.80324661-2.3811014 0-3.5071303.83472274-4.8130757 1.80386038-1.4107932 1.04708601-3.1665297 2.35011277-6.3789692 2.35011277-2.4859492 0-4.0903078-.78132505-5.3472414-1.62034415.4262159-1.25331163 1.4511193-2.82762325 1.8717516-3.44507257.1110519.03682601.2258262.05769407.3406005.05769407.3064784 0 .6110956-.12950477.8226525-.37992159l.4007795-.47628297c.182398-.21604589.2692542-.49039961.2431974-.7727323-.0254365-.28233268-.1600636-.53704587-.378445-.71749329L45.952264.24478246c-.4522727-.37317016-1.1291309-.31302102-1.5075759.13502868l-.4007794.47628297c-.1823981.21604588-.2692543.49039961-.2431974.77273229.018612.20254302.0949214.3891281.2158997.54625238-.5862795.56712044-2.1478303 1.94441295-4.0716957 2.570455-.2438178.07978967-.5658062.15712428-.9318432.24612045-1.399626.34002676-3.3160465.8040344-4.337848 2.01499613l-2.1695444 2.5722963c-.9752713.40999616-2.1478303.69846654-3.6467206.69846654-3.2130599 0-4.9687964-1.30364052-6.38021-2.35134031-1.3034638-.96729634-2.4301131-1.80263284-4.8124553-1.80263284-2.3829625 0-3.5089914.8353365-4.8149368 1.80570168-1.4107932 1.04585848-3.16590935 2.34827147-6.37772844 2.34827147-.20535293 0-.37162056.1651032-.37162056.36826 0 .2031568.16626763.3676463.37162056.3676463 3.45935933 0 5.32490694-1.38343021 6.82689924-2.49741679 1.2953985-.96115868 2.2309641-1.65655637 4.365766-1.65655637 2.134802 0 3.070988.69478392 4.3657661 1.6559426 1.4988903 1.11337282 3.3650583 2.49803056 6.8268992 2.49803056 1.0410339 0 1.9337918-.1282773 2.7185998-.3338891l-.2245853.2663747c-.0397057.0472601-.0614198.1018853-.0732074.1583518-.1526188.302587-.1941857.6401587-.135868.963-.0452893.0006138-.091199-.0049101-.1371087-.0006138-.4181507.0374398-.7953549.2320039-1.0633684.5493213-.3077192.3651912-.409465.8304263-.3312944 1.2655869-.4473096.0018413-.8908967.1847438-1.1992363.549935-.3647962.4327055-.4547544 1.018239-.2525035 1.5442371-.7035354.1755372-1.4895842.2884703-2.4040562.2884703-3.2136803 0-4.9687964-1.3030267-6.3814508-2.351954-1.3034638-.9666826-2.4288723-1.8014053-4.8105941-1.8014053-2.3823421 0-3.5077506.8347227-4.81307558 1.8032466-1.41017284 1.047086-3.16528897 2.3501127-6.37958966 2.3501127-.20535293 0-.37162056.1651033-.37162056.36826C3 16.8355105 3.16626763 17 3.37162056 17c3.46246133 0 5.32738855-1.3846577 6.82751964-2.4980305 1.2953985-.9605449 2.2315845-1.6553289 4.3651456-1.6553289s3.0691268.6941702 4.3657661 1.6559426C20.4289422 15.6153423 22.2938694 17 25.7563307 17c3.4630818 0 5.328009-1.3846577 6.8268992-2.4974168 1.2953986-.9611586 2.2315846-1.6559426 4.3657661-1.6559426 2.1348019 0 3.0709879.694784 4.3657661 1.6559426C42.8136523 15.6153423 44.6785795 17 48.1416613 17c3.4624613 0 5.3273885-1.3846577 6.8262788-2.4974168 1.2953985-.9611586 2.2315846-1.6559426 4.3657661-1.6559426s3.0703675.694784 4.365766 1.6559426C65.1983625 15.6153423 67.0626693 17 70.5251306 17c.2059734 0 .372241-.1644895.372241-.3676463 0-.2031567-.1662676-.36826-.372241-.36826-3.2136803 0-4.9687964-1.3030267-6.3795896-2.3507265-1.3034638-.9672963-2.4301131-1.8026328-4.8118348-1.8026328-2.3817218 0-3.5083711.8353365-4.8124553 1.8032466-1.4101728 1.047086-3.1652889 2.3501127-6.3795896 2.3501127-1.5671345 0-2.7843624-.3124072-3.7869314-.7518642l.2500219-.3074971h.0006204c.0006204-.0006138.0006204-.0006138.0006204-.0012276l.0037224-.0042963c.9907813-1.1821147 1.0280054-3.1694914 1.0546827-4.6228909.009306-.4535736.0167508-.8451568.0490117-1.15204016 1.308427.83901906 2.9847521 1.58904206 5.5302599 1.58904206 3.4612205 0 5.3261477-1.38404397 6.82814-2.49864433 1.2947781-.96054491 2.2303438-1.65532883 4.3639049-1.65532883 2.1348019 0 3.0703675.69539769 4.3682476 1.65901143 1.4988903 1.11153152 3.3644379 2.49496173 6.8237972 2.49496173.2059734 0 .372241-.1644895.372241-.3676463 0-.2031568-.1662676-.36826-.372241-.36826M66.6326855 22.247521c-3.1717606 0-4.9036485-1.332371-6.294546-2.4030375C59.0519266 18.854776 57.9414124 18 55.5887631 18c-2.3520371 0-3.4625513.854776-4.7487642 1.8444835-1.3921219 1.0706665-3.1240098 2.4030375-6.2951582 2.4030375-3.1717606 0-4.9036485-1.332371-6.294546-2.4030375C36.9640818 18.854776 35.8535676 18 33.5009183 18s-3.4631635.854776-4.7493764 1.8444835C27.35942 20.91515 25.6275321 22.247521 22.4563837 22.247521c-3.1711485 0-4.9030363-1.332371-6.2951582-2.4030375C14.8750126 18.854776 13.7644984 18 11.4124613 18c-2.35203715 0-3.46316349.854776-4.7499886 1.8444835C5.27157516 20.91515 3.53907514 22.247521.3673145 22.247521.16467932 22.247521 0 22.4163424 0 22.6240743 0 22.8318062.16467933 23 .3673145 23c3.41724915 0 5.25749476-1.4158403 6.73654778-2.5536588 1.27825444-.9834317 2.2014382-1.6932346 4.30859902-1.6932346 2.1065486 0 3.0297324.7098029 4.3079868 1.6938621C17.1995011 21.5841597 19.0409711 23 22.4563837 23c3.4154126 0 5.2568826-1.4158403 6.7365478-2.5536588 1.2776422-.9834317 2.2002138-1.6932346 4.3079868-1.6932346 2.1071608 0 3.0303445.7098029 4.3079868 1.6932346C39.2879581 21.5841597 41.1282037 23 44.5448407 23c3.4154126 0 5.2568826-1.4158403 6.7365478-2.5536588 1.2776422-.9834317 2.200826-1.6932346 4.3073746-1.6932346 2.1071608 0 3.0303446.7098029 4.3079868 1.6932346C61.3758029 21.5841597 63.2160485 23 66.6326855 23 66.8353207 23 67 22.8318062 67 22.6240743c0-.2077319-.1646793-.3765533-.3673145-.3765533"/></g></svg>