<svg xmlns="http://www.w3.org/2000/svg" viewBox="0 0 42 55"><g fill="#FFF" fill-rule="evenodd"><path d="M35.5781895 35.4299303c-.1162496.5711835-5.5741683 3.4734577-14.7064045 3.4734577-8.9694869 0-13.50820332-2.7350582-14.39003956-3.6961365-.20177609-.2185397-.28896328-1.02068-.28896328-1.02068L4.54452893 23.5815987c1.60341409 1.0422029 6.43524557 3.5040863 16.31895247 3.5040863 8.0635703 0 14.1226655-1.7044445 16.4875144-3.1406812l-1.7728063 11.4849265zM20.871785 39.794103c6.5830486 0 11.7378879-1.4842491 14.1317993-2.844328l-2.2029299 13.5080748c-.3130435.4842643-2.7144281 3.6514351-11.8657625 3.6514351-9.1563166 0-11.49127277-3.1646874-11.79269137-3.6464683L6.94591348 36.6559052C8.77601429 37.8255896 13.0166336 39.794103 20.871785 39.794103zm16.5448088-16.9260697c-.9573985.8377357-6.9077172 3.3269367-16.5531124 3.3269367-9.663663 0-14.79359168-2.4776117-16.14623878-3.5529267L3.6842819 16.1421411c3.90681685 1.7168616 10.3578392 2.7375416 17.358556 2.7375416 8.9445763 0 15.2810097-2.0438434 17.3735025-2.8244608l-.9997466 6.8128114zM3.93504889 6.41629416C5.57499858 8.23331979 11.0877206 9.19274243 19.9642077 9.19274243c.2192136 0 .3985701-.17880525.3985701-.39817281 0-.21853976-.1793565-.39651721-.3985701-.39651721-11.90063737 0-14.85918964-1.66388224-15.56333006-2.65558917-.16357979-.23012899-.17769582-.39817282-.17354404-.47846962.1561066-.37664996.38362367-.76240575.72406892-1.10263241C6.44770092 2.668834 10.3005447.88988727 20.1526982.88988727l.3487488.0008278C36.711623.95776704 37.6690215 4.0777532 37.6756644 4.10258726l.8511131 5.0206198c-.0415177.17880525-.3230078 1.02895804-2.0709036 1.92795114-2.0219126 1.0405472-6.3314513 2.279767-15.3773307 2.279767-16.57387128 0-17.16259246-3.61666744-17.16591387-3.6406737V6.87158532l-.00581248.0008278c0-.11009768.00747318-.26903569.02823204-.45611896zM38.7958123 14.9459671c-.0680891.0306287-6.9085476 3.0430006-17.7529744 3.0430006-10.3453838 0-19.76160126-2.480923-20.1493767-5.2879999v-2.2209931c0-.0802968.03238381-1.91884528 2.12570693-2.52645203v1.72927861c-.00083035.10016406.02408027.63078522.67258696 1.28971572 1.46142352 1.4817657 5.66384648 3.2491233 17.38678811 3.2491233 17.9049291 0 18.3367133-4.87658228 18.3458472-5.08518841l.0024911-.04635692-.2291778-1.34683403c1.7703153.41555666 2.0144395 2.68870126 2.0235734 2.79714336.0083035.2864195.0307231 1.3145497 0 2.5090682-.0174375.6663807-.9383003 1.254948-1.6814674 1.6092473l.0066428-.046357-.7506402.3336043zm3.1868997-4.463509c-.0024911-.0331121-.3047401-3.21352777-2.9211864-3.5396818l-.5007036-2.95111452C38.5076793 3.33769811 37.38421.07036318 20.5047684 0h-.3578827C11.9994496 0 6.65528948 1.20941888 4.26303883 3.59431676 3.10801604 4.7466173 3.02165919 6.53798107 3.02248955 7.03217893.03570523 7.73498292 0 10.4501738 0 10.4783191l.00415177 2.2830782c.14365129 1.0463419 1.05122851 2.024804 2.70031209 2.907241l.9042558 5.6853449c-.07224082.1241703-.19015113.3832724-.18932077.7102542l-.01245531.0215229 2.00530556 12.9046071c.00249106.0115892.00415177.0240063.00581248.0372511l.00581248.0347677.00664283.0091058c.05231232.2408904.16856192.4941979.39275757.7375717.00249107.0033112.04234807.0413901.09881216.091886l2.35654542 14.8060686.03404453.1018196C8.39737275 50.980193 10.4940173 55 20.9348919 55c10.4217764 0 12.6022868-4.0131846 12.6903043-4.1845397l2.39059-14.5742839c.2208742-.2052949.3670165-.3990006.4234806-.5761503.0132857-.0422179.0141161-.0827802.0207589-.1241703l.0033214-.004139 1.9554843-12.6049427c.0016607-.0033113.0049821-.0066225.0066429-.0107615.0149463-.0521515.0157767-.1026474.0190981-.1539712l.0307231-.1953613-.0489909-.0099336c-.0099642-.0372511-.0182678-.0745022-.0348749-.1100977l1.017184-6.9013862c.7838544-.3104258 2.5408841-1.1531283 2.575759-2.4817507.0357052-1.401469-.0008304-2.5661865-.0016607-2.5860538z"/><path d="M33.2060528 4.56154373c0 .2420644.1779965.43845627.3965597.43845627C33.8220035 5 34 4.80360813 34 4.56154373 34 1.94907513 25.9272376 1 20.5004139 1 15.0735903 1 7 1.94907513 7 4.56154373 7 4.80360813 7.1788244 5 7.39738754 5c.21856315 0 .39655966-.19639187.39655966-.43845627 0-1.09522722 4.9499586-2.68554464 12.7064667-2.68554464 7.7556803 0 12.7056389 1.59031742 12.7056389 2.68554464"/><path d="M29.1174767 5.04872466c-1.5212061.48855461-3.9061548 1.01046435-7.1441624 1.01046435-3.0909001 0-5.5202277-.17266187-7.3257867-.37965991l14.4699491-.63080444zm2.6808073-.16873774c.1594349-.1059516.2366869-.32668411.1865553-.53760628C31.937995 4.1442119 31.7884221 4.00981033 31.591183 4l-21.2114152.92315239c-.1939517.0088293-.3558521.18737737-.3772196.41792021-.02218941.2295618.1027286.44833224.2892839.50621321C10.3279926 5.85905821 13.9654092 7 21.9733143 7c6.6206572 0 9.698408-2.03466318 9.8249697-2.12001308zM26.6018119 7.00137277l-4.2405817.20018742c-.1971443.00846946-.3554931.16630954-.3610354.35802749-.0063339.190948.142514.3564876.3356996.37727629C22.3414366 7.93763392 22.9099089 8 23.7800357 8c1.0530198 0 2.0347825-.09008434 2.9167855-.26794316.1931856-.03926753.3254069-.2178963.3000711-.40807435-.0261276-.19787756-.2066453-.33954866-.3950804-.32260972M21.1499763 32.499827l4.698821-3.7789447c.1751825-.1419741.2021966-.3967162.0597585-.5711415-.1416195-.1728028-.4003002-.2003863-.5754828-.0600348L20.5 31.9773623l-4.833073-3.8876563c-.1760012-.1403515-.4338633-.112768-.5754828.0600348-.1424381.1744253-.115424.4291674.0597585.5711415l4.698821 3.7789447-4.698821 3.7789446c-.1751825.1419741-.2021966.3967162-.0597585.5711415.0810424.0981649.1989222.1500869.3184392.1500869.0900471 0 .1817314-.0292061.2570436-.0900521L20.5 33.0231029l4.833073 3.886845c.0761308.060846.1669965.0900521.2570436.0900521.119517 0 .2373968-.051922.3184392-.1500869.1424381-.1744253.115424-.4291674-.0597585-.5711415l-4.698821-3.7789446z"/></g></svg>