<svg xmlns="http://www.w3.org/2000/svg" viewBox="0 0 43 40"><path fill="#FFF" fill-rule="evenodd" d="M41.5119537 10.6983714v2.6785544c0 1.7535017-.5802751 2.3521513-.6143219 2.3858162-4.8242774 4.948739-12.0229461 12.2935401-13.3818558 13.5947613.0917782-.440571.0547709-.6703705-.0547708-.9674997-.0207242-.0541566-.0429286-.1200227-.0621724-.2151626-.0414482-.8313764-.0991797-1.6598255-.2013199-2.434118.0207241-.1331959.0547708-.2810286.1287855-.4815543.4218837-1.1402152-.1376673-1.5705404-.6705731-1.8179041-.1820761-.0848941-.3019799-.1405144-.4100413-.3088388-.5713934-.9074884-1.4817741-.9572539-2.2515269-.9572539h-.1421082c-.272374 0-.5580707.0043911-.8526492-.0307375l-.3241843-.0351286c-.065133-.0073184-.1243447-.0131732-.1746747-.019028-.0088818-.0585476-.0162832-.1258774-.0266453-.2019893l-.0340468-.2327269c-.0769752-.5196102-.3049405-.889924-.6113613-1.1665616v-.0043911c-.025165-.0234191-.0784556-.0526929-.1125023-.0775756-.1998397-.1580786-.4248443-.2839561-.6631716-.3849507-.3582311-.1727156-.7949178-.3615317-1.2641709-.5488841l-.1184235.1170952c-.1125023-.0307375-.2235244-.0600113-.337507-.0951399-.3404676-.1068494-.6024796-.1668607-.8097207-.2166262-.1065812-.0234191-.2457288-.057084-.2279652-.0204917-.0103621-.019028-.039968-.0819667-.0888177-.2502911-.2782952-.9601813-.9592303-1.1124051-1.4580893-1.2236457-.2427682-.0556202-.4944182-.1127042-.7978784-.2546822-.5876766-.2751739-.8186025-.3439673-1.1279839-.4244703-.1879973-.0483018-.4174428-.1068495-.9163018-.3000567-.1080614-.0395196-.1850367-.0731845-.2412879-.099531.0325665-.2049167.0666132-.4918001.0074015-.8723598-.1983594-1.2514557-1.0317648-1.3465956-1.6386852-1.4183165-.1879973-.0219553-.4100414-.0453744-.6720534-.1024583-.3034602-.0658661-.3419479-.0746483-.2383273-.7157449 1.622402-1.3012212 11.1969421-9.00023549 13.458831-11.00988313 1.8770126-1.66714396 2.8510459-.9997009 2.9768708-.91187944.1110221.0644024 11.2013831 6.43731268 12.8297062 7.52190766 1.1324248.75087344 1.1339051 1.34952301 1.1398263 1.34952301-.0103621.0497655-.0162833.1009947-.0162833.1522239zM27.1886311 25.7948796l.0059212.383487c-.0177636-.1331959-.0192438-.2561459-.0059212-.383487zm-9.4649984 8.8114193c-.0044409-.8489407-.498859-1.790094-1.1501883-2.1882179l-1.224203-.7464824 8.1504976-8.0473727c.1184235.0014637.2472091.0146369.3582311.0146369.7579104 0 .9799545.0278102 1.133905.2678555.2797755.4434983.6276446.6601246.9533092.8225943-.0029606.0087821-.0059212.019028-.0088817.0278101-.3286253.8913878-.2546106 1.3597689-.1672732 1.9027982.0399679.2473638.0873373.540102.0962191.9601813.0133226.7025716.1095417 1.0158015.222044 1.3056123 0 .0014637-.0014803.0175643-.0029606.0248827l-8.3458963 8.2522894-.0148029-2.5965877zM1.94962213 29.6077944c-.17763526-.1083131-.44260784-.5532751-.44408814-.9484717l-.01036205-3.7104565 1.3085797.7977116c.17615496.1068494.44112755.5518115.44408813.9484717h.0014803c.02960587.8299127.51366194 1.73301 1.15018826 2.1208881l1.66385021 1.0128742c.42040344.2546822.8807748.2824923 1.25973001.0687934.35082963-.1932072.5728737-.5532751.63504603-1.0099467l1.33966588.8167395c.17763525.1097769.44556842.5547389.44852901.9470081.00444088.8504044.49885903 1.7886303 1.15018823 2.1882179l1.6638503 1.0128741c.4218837.2532185.8807748.2824924 1.2612103.0687935.3641522-.2005257.5906372-.5840127.6424475-1.0684944l1.3322644.8108848c.1776352.1097768.4455684.5547388.4470487.9499354l.010362 3.7104565-14.30407877-8.7162795zm13.77857447-5.0848622c.1450688.1434417.3345464.2151625.524024.2151625.1879974 0 .377475-.0717208.5225437-.2151625l3.3247399-3.2859862c.6054401.1858888.8319251.3351853.8748536.6308508l.0325665.222481c.1051008.7333092.2827361 1.0772766.6972183 1.2690201l-8.3207313 8.1849596.025165.0248828c-.2087214.2136988-.3641523.483018-.4026399.8357675l-1.3322644-.8123485c-.1776353-.1083131-.4455685-.5547388-.4470487-.9484717-.0059212-.8489407-.5003393-1.7886303-1.1501883-2.1852905l-1.22568327-.7479461 8.06612077-7.9639423c.2634923.6235323.6306052.8094211 1.2686118.9572538.0843768.0204917.1805959.0409834.2886573.0687935l-2.745945 2.7151467c-.2886572.2868834-.2886572.7494097 0 1.0348295zm-5.1351391-8.9329058c.136187.0585477.276815.1141679.4500093.1507602.3197435.0687935.5891569.1024584.8186025.1273411.1421082.019028.3212237.038056.2990193-.0087821 0 .0014637.025165.0497655.0488497.1990619.0310862.1946709.0088818.3264031-.0192438.4771633-.1583914.9294437.312342 1.3026849 1.1797941 1.6334791.589157.2268721.8556099.2956655 1.0776539.3527495.2176032.0556202.362672.0936762.8704128.3307941.1065811.0497655.196879.0746483.2960587.1127042l-8.67304124 8.5640556.0236847.0248828c-.22796524.203453-.39967932.4742358-.45000931.8313764l-1.33966587-.8167395c-.17763526-.1083132-.44556843-.5547389-.44704873-.9470081h-.00148029c-.00740147-.2751738-.08141616-.5503477-.18059584-.8196669l4.49565221-4.4452293c.29013758-.2854197.29013758-.7479461 0-1.0348295-.28865728-.2854197-.75643012-.2854197-1.0465677 0l-4.31357608 4.2651954c-.03552705-.0248828-.06661322-.0658661-.10362056-.0878215l-1.25528913-.7655103 8.27040134-8.1439764zM41.215895 7.98176102C39.5461236 6.8722833 28.7607031.67208854 28.4054326.48034503c-.0769753-.0644024-1.9362243-1.53687547-4.8109548 1.01726519C21.1993625 3.62435314 10.0838365 12.5484767 9.96985383 12.6362982c-.1421082.1156315-.236847.2795649-.26349229.4595989l-.02812558.1639334c-.0473694.2854197-.11546292.7420913-.025165 1.1929081L.47672981 23.486639l.03848764.038056c-.32714492.2546822-.51958311.6703704-.51514223 1.188517l.025165 3.9534292c.00444087.8504044.498859 1.7915577 1.14870797 2.1882179l14.65934931 8.9329057c.2324061.1405143.4751743.2122352.710541.2122352.1924382 0 .3789552-.0483018.5506693-.1434417.0814162-.0439107.1480294-.1053858.2146426-.1668608l.0044409.0043911.0414482-.0395197c.0088818-.0102458.0177635-.0190279.0281256-.0292738l8.6034674-8.5084353c.1213841.0161006.2501697.0292738.3937582.0292738.6217234 0 1.3973973-.1478328 1.758589-.3893418.5047802-.3337215 9.8350719-9.8872322 13.7756139-13.9328739.1110221-.0951399 1.0776539-.9938461 1.0776539-3.4469921v-2.63318c.0384876-.379096.0014803-1.5807862-1.7763525-2.76198478z"/></svg>