<svg xmlns="http://www.w3.org/2000/svg" viewBox="0 0 18 15"><path fill="#FFF" fill-rule="evenodd" d="M18 1.796875c-.4576294.7291703-1.0677928 1.3802055-1.8305085 1.953125v.46875c0 2.7343887-.9597361 5.2148326-2.8792373 7.4414062C11.3707531 13.8867299 8.8220498 15 5.6440678 15 3.6101593 15 1.7288222 14.4270891 0 13.28125c.4067817.0520836.6991517.078125.8771186.078125 1.7033984 0 3.2288069-.5468695 4.5762712-1.640625-.7881395-.0260418-1.4999968-.2799455-2.1355932-.7617188-.6355964-.4817732-1.0677955-1.1002566-1.2966102-1.8554687.3050863.0520836.5338976.078125.6864407.078125.2542386 0 .5847437-.0520828.9915254-.15625-.8389872-.1822926-1.5444886-.6184861-2.1165254-1.3085937C1.0105904 7.0247361.7245763 6.2239629.7245763 5.3125c.5593248.2734391 1.1186412.4296875 1.6779661.4296875C1.3093166 5.0130172.7627119 3.9583402.7627119 2.578125c0-.6510449.1652525-1.2760387.4957627-1.875 1.9576369 2.4739707 4.4872726 3.7890617 7.588983 3.9453125-.0508477-.1822926-.0762712-.468748-.0762712-.859375 0-1.0677137.3559287-1.9661422 1.0677967-2.6953125C10.550851.3645797 11.4279609 0 12.470339 0c1.0423781 0 1.9321997.4036418 2.6694915 1.2109375.7627157-.130209 1.5508434-.4427059 2.3644068-.9375-.2542386.9114629-.8008433 1.6145809-1.6398305 2.109375C16.6525463 2.3046871 17.3644036 2.1093766 18 1.796875z"/></svg>